<svg id="Capa_1" data-name="Capa 1" xmlns="http://www.w3.org/2000/svg" viewBox="0 0 285.26 285.26"><defs><style>.cls-1{fill:#fdfefe;}.cls-2{fill:none;stroke:#fdfefe;stroke-miterlimit:10;stroke-width:4px;}</style></defs><title>INSTAGRAM ICON</title><path class="cls-1" d="M390.87,361.41a11.73,11.73,0,1,0,11.72,11.73A11.73,11.73,0,0,0,390.87,361.41Z" transform="translate(-195.3 -283.06)"/><path class="cls-1" d="M338.76,376.45A49.24,49.24,0,1,0,388,425.69,49.3,49.3,0,0,0,338.76,376.45Zm0,80.78a31.54,31.54,0,1,1,31.54-31.54A31.58,31.58,0,0,1,338.76,457.23Z" transform="translate(-195.3 -283.06)"/><path class="cls-1" d="M377.85,525.66H298A60.12,60.12,0,0,1,238,465.6V385.77A60.12,60.12,0,0,1,298,325.71h79.83a60.13,60.13,0,0,1,60.06,60.06V465.6A60.13,60.13,0,0,1,377.85,525.66ZM298,344.52a41.3,41.3,0,0,0-41.25,41.25V465.6A41.29,41.29,0,0,0,298,506.85h79.83A41.3,41.3,0,0,0,419.1,465.6V385.77a41.3,41.3,0,0,0-41.25-41.25Z" transform="translate(-195.3 -283.06)"/><circle class="cls-2" cx="337.93" cy="425.69" r="140.63" transform="translate(-397.33 80.58) rotate(-45)"/></svg>