<svg id="Capa_1" data-name="Capa 1" xmlns="http://www.w3.org/2000/svg" viewBox="0 0 792 612"><defs><style>.cls-1{fill:#d62a22;}.cls-2{fill:#fff;}</style></defs><title>Logotipo R&amp;amp;L</title><path class="cls-1" d="M181.29,481.76A25.36,25.36,0,0,1,173,491.2a21,21,0,0,1-12,3.51,24.34,24.34,0,0,1-10.47-2.11,20.45,20.45,0,0,1-7.41-5.72,24.23,24.23,0,0,1-4.34-8.44,35.75,35.75,0,0,1-1.43-10.19,30.13,30.13,0,0,1,1.53-9.47,26.88,26.88,0,0,1,4.49-8.36,21.91,21.91,0,0,1,7.11-5.75,20.56,20.56,0,0,1,9.52-2.18,22.82,22.82,0,0,1,9.28,1.71,16.42,16.42,0,0,1,6.28,4.67,18.55,18.55,0,0,1,3.44,6.62,29.25,29.25,0,0,1,1.13,8.29v3.31H147.3a38.93,38.93,0,0,0,.93,8.86,21.32,21.32,0,0,0,2.94,7,13.93,13.93,0,0,0,5.12,4.6,15.74,15.74,0,0,0,7.53,1.69,13.86,13.86,0,0,0,7.71-2.1q3.24-2.08,6.25-7.54ZM170.2,462.88a40.63,40.63,0,0,0-.48-6,18.57,18.57,0,0,0-1.53-5.36,10.31,10.31,0,0,0-3.16-3.75,8.63,8.63,0,0,0-5.18-1.45,10.77,10.77,0,0,0-8.76,4.38q-3.5,4.38-3.79,12.19Z"/><path class="cls-1" d="M233.92,492.5q-2.37.86-4.14,1.38a14.35,14.35,0,0,1-4.05.53,9.87,9.87,0,0,1-6.25-1.83,8.52,8.52,0,0,1-3-5.35h-.3a24.4,24.4,0,0,1-7,5.52,19.68,19.68,0,0,1-9,1.91,12.78,12.78,0,0,1-9.17-3.41,11.8,11.8,0,0,1-3.59-8.94,15.33,15.33,0,0,1,.8-5.12,12.74,12.74,0,0,1,5.73-6.76,29.5,29.5,0,0,1,3.87-1.88q2.25-.85,9.16-3.16a68.23,68.23,0,0,0,9.31-3.62v-5a21.65,21.65,0,0,0-.27-2.51,10.76,10.76,0,0,0-1.18-3.52,10.09,10.09,0,0,0-2.84-3.23,8.49,8.49,0,0,0-5.2-1.38,11.8,11.8,0,0,0-4.29.77,7.87,7.87,0,0,0-2.79,1.64,13.68,13.68,0,0,0,.48,3,15.22,15.22,0,0,1,.48,3.61,4.32,4.32,0,0,1-1.58,3.22,6.26,6.26,0,0,1-4.4,1.45A4.11,4.11,0,0,1,191,458a7.05,7.05,0,0,1-1.18-4,7.18,7.18,0,0,1,1.63-4.42,16.51,16.51,0,0,1,4.25-3.77,23.18,23.18,0,0,1,5.47-2.38,21.54,21.54,0,0,1,6.28-1,40.56,40.56,0,0,1,7.35.58,13.49,13.49,0,0,1,5.7,2.48,11.5,11.5,0,0,1,3.89,5.05,21.45,21.45,0,0,1,1.33,8.21q0,7.19-.15,12.73t-.15,12.12a6.17,6.17,0,0,0,.68,3.12,5.56,5.56,0,0,0,2.08,2,5.14,5.14,0,0,0,2.39.5c1.09,0,2.2.05,3.34.05ZM216.39,466c-2.84.84-5.34,1.66-7.48,2.47a30.36,30.36,0,0,0-6,3,13.67,13.67,0,0,0-4,4.06,10.29,10.29,0,0,0-1.46,5.56q0,4.17,2.19,6.14a8,8,0,0,0,5.55,2,11.34,11.34,0,0,0,6.27-1.74,18.25,18.25,0,0,0,4.57-4.1Z"/><path class="cls-1" d="M269.42,491.25q-3.27,1.35-6.18,2.28a23.68,23.68,0,0,1-7.13.93q-6.23,0-8.76-3.14t-2.54-8.86V448.92h-8.93V444.1H245V428.68h9.13V444.1h14.21v4.82H254.25v27.66a49.63,49.63,0,0,0,.23,5.2,9.65,9.65,0,0,0,1.08,3.64,5.14,5.14,0,0,0,2.41,2.21,10.34,10.34,0,0,0,4.32.75c.84,0,2.07-.07,3.69-.22a15.85,15.85,0,0,0,3.44-.58Z"/><path class="cls-1" d="M321.24,492.5c-1.57.57-3,1-4.14,1.38a14.35,14.35,0,0,1-4.05.53,9.87,9.87,0,0,1-6.25-1.83,8.52,8.52,0,0,1-3-5.35h-.3a24.4,24.4,0,0,1-7,5.52,19.68,19.68,0,0,1-9,1.91,12.78,12.78,0,0,1-9.17-3.41,11.8,11.8,0,0,1-3.59-8.94,15.33,15.33,0,0,1,.8-5.12,12.85,12.85,0,0,1,5.73-6.76,29.5,29.5,0,0,1,3.87-1.88q2.25-.85,9.16-3.16a68.23,68.23,0,0,0,9.31-3.62v-5a21.65,21.65,0,0,0-.27-2.51,10.76,10.76,0,0,0-1.18-3.52,10.09,10.09,0,0,0-2.84-3.23,8.49,8.49,0,0,0-5.2-1.38,11.8,11.8,0,0,0-4.29.77,7.87,7.87,0,0,0-2.79,1.64,13.68,13.68,0,0,0,.48,3,15.22,15.22,0,0,1,.48,3.61,4.32,4.32,0,0,1-1.58,3.22,6.26,6.26,0,0,1-4.4,1.45,4.11,4.11,0,0,1-3.69-1.78,7.05,7.05,0,0,1-1.18-4,7.18,7.18,0,0,1,1.63-4.42,16.51,16.51,0,0,1,4.25-3.77,23.18,23.18,0,0,1,5.47-2.38,21.54,21.54,0,0,1,6.28-1,40.56,40.56,0,0,1,7.35.58,13.44,13.44,0,0,1,5.7,2.48,11.5,11.5,0,0,1,3.89,5.05,21.45,21.45,0,0,1,1.33,8.21q0,7.19-.15,12.73t-.15,12.12a6.17,6.17,0,0,0,.68,3.12,5.56,5.56,0,0,0,2.08,2,5.14,5.14,0,0,0,2.39.5c1.09,0,2.2.05,3.34.05ZM303.71,466q-4.26,1.26-7.48,2.47a30.36,30.36,0,0,0-6,3,13.67,13.67,0,0,0-4,4.06,10.29,10.29,0,0,0-1.46,5.56q0,4.17,2.19,6.14a8,8,0,0,0,5.55,2,11.34,11.34,0,0,0,6.27-1.74,18.25,18.25,0,0,0,4.57-4.1Z"/><path class="cls-1" d="M358.85,469.15a12.81,12.81,0,0,1,3.16,4.17,13.5,13.5,0,0,1,1.11,5.77A14.08,14.08,0,0,1,358,490.34q-5.14,4.37-13.33,4.37a20,20,0,0,1-8-1.56,21.68,21.68,0,0,1-5.2-2.86l-1,3.27h-3.77l-.5-17.23h3.46a19.47,19.47,0,0,0,1.71,4.59,22.18,22.18,0,0,0,3.16,4.73,17.44,17.44,0,0,0,4.7,3.73,12.46,12.46,0,0,0,6.15,1.51q4.82,0,7.43-2.19a7.77,7.77,0,0,0,2.61-6.29,7.44,7.44,0,0,0-.83-3.64,8,8,0,0,0-2.43-2.69A19.28,19.28,0,0,0,348.1,474c-1.6-.62-3.4-1.23-5.37-1.83a51.15,51.15,0,0,1-5.25-1.94,20.74,20.74,0,0,1-4.94-2.89,14.14,14.14,0,0,1-3.62-4.31,12.33,12.33,0,0,1-1.41-6A13.55,13.55,0,0,1,332,446.71q4.53-4.21,12.11-4.22a24.81,24.81,0,0,1,5.95.75,21,21,0,0,1,4.94,1.81l1.16-2.61h3.61l.75,15.92h-3.46a16,16,0,0,0-4.54-8.7,11.82,11.82,0,0,0-8.51-3.35,9.48,9.48,0,0,0-6.48,2.07,6.41,6.41,0,0,0-2.36,5,8.12,8.12,0,0,0,.78,3.76,6.76,6.76,0,0,0,2.33,2.56,19.93,19.93,0,0,0,3.79,1.89q2.29.87,5.65,2A47.8,47.8,0,0,1,354,466,20.48,20.48,0,0,1,358.85,469.15Z"/><path class="cls-1" d="M464.8,451.83a28.5,28.5,0,0,0-6,1.18A9.17,9.17,0,0,0,454.2,456a15,15,0,0,0-2.13,3.56q-1.08,2.36-2.58,5.57t-3.06,6.33a35.73,35.73,0,0,1-4,6.23,69.81,69.81,0,0,0,4.92,5.25,30,30,0,0,0,5,4.09,20.42,20.42,0,0,0,5.69,2,37.93,37.93,0,0,0,6,.9v3.57H443.36l-7.48-8.54c-1.11,1.2-2.37,2.45-3.8,3.74a28.25,28.25,0,0,1-4.49,3.34,27.65,27.65,0,0,1-5.25,2.36,20.16,20.16,0,0,1-6.2.85,26,26,0,0,1-7.38-1.08,19.75,19.75,0,0,1-6.68-3.44,17.37,17.37,0,0,1-4.72-5.92,19.19,19.19,0,0,1-1.81-8.64,20.21,20.21,0,0,1,3.29-11.27q3.3-5.06,12.28-10.72a93.73,93.73,0,0,1-6.33-9.29,17.33,17.33,0,0,1-2.26-8.79,14.51,14.51,0,0,1,1.38-6.35,15.33,15.33,0,0,1,3.9-5.05,16.93,16.93,0,0,1,5.62-3.06,21,21,0,0,1,6.73-1.1,17.89,17.89,0,0,1,7,1.28,13.89,13.89,0,0,1,5,3.34,13.25,13.25,0,0,1,2.69,4.41,14.63,14.63,0,0,1,.92,5A15.35,15.35,0,0,1,432,444.87a34.59,34.59,0,0,1-10.28,7.81q4.71,6.38,9.23,11.63t8.68,10.32a63,63,0,0,0,5.2-10.12,23.59,23.59,0,0,0,1.85-8.36c0-1.07-.78-1.92-2.33-2.54a40.49,40.49,0,0,0-6.46-1.78v-3.57H464.8ZM433.21,482q-4.66-5.93-10.52-13t-9.36-11.93a16,16,0,0,0-5.75,6.6,21.22,21.22,0,0,0-1.68,8.67,16.7,16.7,0,0,0,3.89,11.32,13.1,13.1,0,0,0,10.42,4.49,17.4,17.4,0,0,0,7.2-1.58A14.5,14.5,0,0,0,433.21,482Zm-3.91-46.45q0-5.11-2.26-7.86a7.82,7.82,0,0,0-6.4-2.73,7.31,7.31,0,0,0-3.91.95,9.52,9.52,0,0,0-2.65,2.41,9.62,9.62,0,0,0-1.45,3,10.43,10.43,0,0,0-.46,2.86,15.4,15.4,0,0,0,1.81,7,59.91,59.91,0,0,0,5.62,8.56,21.33,21.33,0,0,0,7.42-6.3A13.84,13.84,0,0,0,429.3,435.51Z"/><path class="cls-1" d="M551.77,472.22l-1.51,21.19H494.57v-3.57c.81-.07,2-.18,3.49-.35a12.41,12.41,0,0,0,3.19-.65,4.41,4.41,0,0,0,2.19-1.91,6.78,6.78,0,0,0,.67-3.22v-51a7.53,7.53,0,0,0-.57-3,4.41,4.41,0,0,0-2.29-2.1A16.28,16.28,0,0,0,498,426.4a18.36,18.36,0,0,0-3.44-.68v-3.57h30.08v3.57a23.07,23.07,0,0,0-3.64.5,27.93,27.93,0,0,0-3.24.8,3.76,3.76,0,0,0-2.33,2.06,7.77,7.77,0,0,0-.63,3.12v47.85a30.89,30.89,0,0,0,.33,5.15,4.51,4.51,0,0,0,1.53,2.83,6.87,6.87,0,0,0,3.44,1.18,55.06,55.06,0,0,0,6.4.28c1.24,0,2.53,0,3.87-.1a34.25,34.25,0,0,0,3.81-.4,19.64,19.64,0,0,0,3.24-.83,5.19,5.19,0,0,0,2.19-1.33,45,45,0,0,0,4.79-7,50.14,50.14,0,0,0,3.79-7.6Z"/><path class="cls-1" d="M603.64,468.15A32.9,32.9,0,0,1,602,478.42a24.45,24.45,0,0,1-4.73,8.56,21.86,21.86,0,0,1-8,6,25.73,25.73,0,0,1-10.25,2,23.12,23.12,0,0,1-9-1.78,22.61,22.61,0,0,1-7.59-5.2,24.79,24.79,0,0,1-5.2-8.21,29.07,29.07,0,0,1-1.94-10.87q0-11.6,6.76-19t17.72-7.38a22.84,22.84,0,0,1,17.17,7Q603.63,456.5,603.64,468.15Zm-10.4.1a45.24,45.24,0,0,0-.75-8,25.4,25.4,0,0,0-2.27-7.11,13.86,13.86,0,0,0-4.22-5,10.64,10.64,0,0,0-6.39-1.88,11.33,11.33,0,0,0-6.62,1.9,14.23,14.23,0,0,0-4.45,5.23,22.9,22.9,0,0,0-2.26,7,45.49,45.49,0,0,0-.65,7.58,47.7,47.7,0,0,0,.77,8.91,25.8,25.8,0,0,0,2.49,7.31,14.29,14.29,0,0,0,4.31,5,10.74,10.74,0,0,0,6.41,1.84q6.28,0,10-6.08T593.24,468.25Z"/><path class="cls-1" d="M665.45,493.41h-24.2v-3.32l2.53-.2a9.88,9.88,0,0,0,2.29-.4,3.62,3.62,0,0,0,2.08-1.58,5.71,5.71,0,0,0,.68-2.94V459.51q0-5.26-2.49-8.13a7.77,7.77,0,0,0-6.07-2.87,13.88,13.88,0,0,0-4.88.83,17.32,17.32,0,0,0-3.93,2,11.51,11.51,0,0,0-2.64,2.48,22.43,22.43,0,0,0-1.43,2.14v28.47a5.14,5.14,0,0,0,.7,2.81A4.55,4.55,0,0,0,630.2,489a10.17,10.17,0,0,0,2.28.75,20.71,20.71,0,0,0,2.54.35v3.32H610.77v-3.32l2.38-.2a9.49,9.49,0,0,0,2.14-.4,3.62,3.62,0,0,0,2.08-1.58,5.65,5.65,0,0,0,.68-2.93V454.43a6.84,6.84,0,0,0-.73-3.13,6.37,6.37,0,0,0-2-2.34,6.83,6.83,0,0,0-2.26-.87,19.62,19.62,0,0,0-2.82-.38V444.4l16.47-1.11.71.71v7h.25c.8-.81,1.81-1.77,3-2.89a25.92,25.92,0,0,1,3.42-2.74,18.18,18.18,0,0,1,4.41-2,19.51,19.51,0,0,1,5.78-.8q7.13,0,10.57,4.44t3.44,11.83v25.76a5.84,5.84,0,0,0,.6,2.84,4,4,0,0,0,2.06,1.68,13.35,13.35,0,0,0,2.08.7,17.31,17.31,0,0,0,2.44.3Z"/><path class="cls-1" d="M718.42,492.5q-2.35.86-4.14,1.38a14.28,14.28,0,0,1-4,.53,9.85,9.85,0,0,1-6.25-1.83,8.44,8.44,0,0,1-3-5.35h-.3a24.44,24.44,0,0,1-7,5.52,19.62,19.62,0,0,1-9,1.91,12.76,12.76,0,0,1-9.16-3.41,11.76,11.76,0,0,1-3.59-8.94,15.08,15.08,0,0,1,.8-5.12,12.09,12.09,0,0,1,2.41-4.07,12.26,12.26,0,0,1,3.31-2.69,30.78,30.78,0,0,1,3.87-1.88q2.26-.85,9.16-3.16a68.53,68.53,0,0,0,9.32-3.62v-5a20.2,20.2,0,0,0-.28-2.51,10.32,10.32,0,0,0-1.18-3.52,10.06,10.06,0,0,0-2.83-3.23,8.53,8.53,0,0,0-5.2-1.38,11.8,11.8,0,0,0-4.29.77,7.69,7.69,0,0,0-2.79,1.64,13.68,13.68,0,0,0,.48,3,15.7,15.7,0,0,1,.47,3.61,4.29,4.29,0,0,1-1.58,3.22,6.23,6.23,0,0,1-4.39,1.45,4.09,4.09,0,0,1-3.69-1.78,7,7,0,0,1,.45-8.41,16.45,16.45,0,0,1,4.24-3.77,23.36,23.36,0,0,1,5.47-2.38,21.64,21.64,0,0,1,6.28-1,40.76,40.76,0,0,1,7.36.58,13.49,13.49,0,0,1,5.7,2.48,11.65,11.65,0,0,1,3.89,5.05,21.64,21.64,0,0,1,1.33,8.21q0,7.19-.15,12.73t-.15,12.12a6.07,6.07,0,0,0,.68,3.12,5.49,5.49,0,0,0,2.08,2,5.09,5.09,0,0,0,2.38.5c1.09,0,2.21.05,3.34.05ZM700.9,466q-4.27,1.26-7.48,2.47a30.17,30.17,0,0,0-6,3,13.76,13.76,0,0,0-4,4.06,10.2,10.2,0,0,0-1.46,5.56q0,4.17,2.18,6.14a8,8,0,0,0,5.55,2,11.38,11.38,0,0,0,6.28-1.74,18.25,18.25,0,0,0,4.57-4.1Z"/><path class="cls-1" d="M756,469.15a12.85,12.85,0,0,1,3.17,4.17,13.65,13.65,0,0,1,1.1,5.77,14.08,14.08,0,0,1-5.15,11.25q-5.14,4.37-13.33,4.37a20,20,0,0,1-8-1.56,21.57,21.57,0,0,1-5.19-2.86l-1,3.27H723.9l-.51-17.23h3.47a19.47,19.47,0,0,0,1.71,4.59,21.81,21.81,0,0,0,3.16,4.73,17.4,17.4,0,0,0,4.69,3.73,12.52,12.52,0,0,0,6.16,1.51q4.81,0,7.43-2.19a7.77,7.77,0,0,0,2.61-6.29,7.56,7.56,0,0,0-.83-3.64,8,8,0,0,0-2.44-2.69,19.18,19.18,0,0,0-4.06-2.08q-2.41-.93-5.38-1.83a50.2,50.2,0,0,1-5.24-1.94,20.62,20.62,0,0,1-4.95-2.89,14.11,14.11,0,0,1-3.61-4.31,12.33,12.33,0,0,1-1.41-6,13.55,13.55,0,0,1,4.52-10.29q4.51-4.21,12.1-4.22a24.81,24.81,0,0,1,5.95.75,21.32,21.32,0,0,1,5,1.81l1.15-2.61H757l.75,15.92h-3.46a16,16,0,0,0-4.55-8.7,11.8,11.8,0,0,0-8.51-3.35,9.5,9.5,0,0,0-6.48,2.07,6.44,6.44,0,0,0-2.36,5,8.12,8.12,0,0,0,.78,3.76,6.87,6.87,0,0,0,2.34,2.56,19.35,19.35,0,0,0,3.79,1.89q2.28.87,5.65,2a48.37,48.37,0,0,1,6.25,2.46A20.41,20.41,0,0,1,756,469.15Z"/><path class="cls-1" d="M181.08,511.34q0,16.1-16.65,16.1-28.55,0-43.74-30.92l-8.42-24.89Q105,455.16,90.86,455.16h-13v38.25H70V382H90.86q17.74,0,30.29,10.7t12.53,25.72q0,11.7-8.41,21.77a40.07,40.07,0,0,1-23.06,14.09q9,3.67,16.1,17.57,4.57,10.62,9.34,21.23,7.5,15,18.3,23.42,10.05,8.06,20.31,8.06a13.64,13.64,0,0,0,8.78-2.93q4.4-3.66,4.39-10.25a10.24,10.24,0,0,0-4.75-8.69,18.17,18.17,0,0,0-10.8-3.39v-1.65a19.56,19.56,0,0,1,11.8,3.94Q181.08,505.48,181.08,511.34Zm-55.26-93A32.93,32.93,0,0,0,115.62,394,33.88,33.88,0,0,0,90.91,384h-13v69.18h13a34.76,34.76,0,0,0,34.91-34.77Z"/><path class="cls-1" d="M601.84,215.33c0,103.21-83.67,187-187,187S228,318.54,228,215.33s83.67-187,187-187S601.84,112,601.84,215.33Z"/><path class="cls-2" d="M436.37,216.31c3.13,0,4.76-.08,5.88-.17a.82.82,0,0,1,.09,1l-1.84.3c-2.29.39-3.5,2.53-4.8,4.67s-3.09,4.68-4.84,7.16c.71,1.16,1,1.5,1.38,2.15,2.21,3.47,4.34,3.86,6.05,3.86a5.29,5.29,0,0,0,3.75-1.55.58.58,0,0,1,.46.77,7.89,7.89,0,0,1-6.63,2.88,7.23,7.23,0,0,1-4.46-1.25,25.9,25.9,0,0,1-2.55-3.94c-2.38,2.74-5.38,5.19-9.09,5.19-5.89,0-8.18-4.33-8.18-7.72,0-4.46,3.05-7.07,6.76-9.35-1.5-1.07-3.21-2.74-3.21-5.18a5.83,5.83,0,0,1,5.84-5.79,5,5,0,0,1,5.38,5.1c0,2.83-2.17,3.94-4.22,5.14a28.9,28.9,0,0,1,8,8.41,63,63,0,0,0,4.34-7.5,8.07,8.07,0,0,0,.92-2.36c0-.3-.42-.56-1.09-.65l-1.41-.17a.7.7,0,0,1,.08-1ZM414.72,228.4c0,3.82,2.54,6.48,6.22,6.48,2.79,0,5.29-1.67,7.17-3.95a30.38,30.38,0,0,0-8.68-9.69C417.35,222.32,414.72,224.93,414.72,228.4Zm3.09-14.27c0,1.8,1.16,3.34,3.42,4.67a5.29,5.29,0,0,0,2.5-4.46c0-1.88-.92-3.73-2.92-3.73C419,210.61,417.81,212.37,417.81,214.13Z"/><path class="cls-2" d="M514,252.24,512,281H436.37v-4.84c1.09-.09,2.66-.25,4.73-.48a16.24,16.24,0,0,0,4.33-.88,6,6,0,0,0,3-2.59,9.2,9.2,0,0,0,.92-4.37V198.6a10.08,10.08,0,0,0-.79-4.09,5.92,5.92,0,0,0-3.1-2.86,22.74,22.74,0,0,0-4.39-1.6,25.53,25.53,0,0,0-4.67-.92v-4.84h40.82v4.84a31,31,0,0,0-4.94.68,36.92,36.92,0,0,0-4.4,1.09,5.1,5.1,0,0,0-3.17,2.79,10.72,10.72,0,0,0-.85,4.23v65a41.66,41.66,0,0,0,.45,7,6.22,6.22,0,0,0,2.07,3.85,9.47,9.47,0,0,0,4.67,1.6,77.3,77.3,0,0,0,8.69.37c1.68,0,3.43,0,5.25-.13a45.69,45.69,0,0,0,5.18-.55,27.18,27.18,0,0,0,4.4-1.12,7,7,0,0,0,3-1.81,61.42,61.42,0,0,0,6.51-9.51,68,68,0,0,0,5.15-10.32Z"/><path class="cls-2" d="M517.15,313.43q0,27.87-28.83,27.88-49.41,0-75.7-53.54-7.29-21.52-14.57-43.08-12.68-28.5-37.06-28.5H338.5v66.2H324.88V89.48H361q30.72,0,52.42,18.53t21.7,44.51q0,20.28-14.57,37.69a69.4,69.4,0,0,1-39.91,24.39q15.51,6.35,27.87,30.41,7.92,18.38,16.15,36.75,13,26,31.68,40.54,17.42,13.93,35.16,13.94a23.62,23.62,0,0,0,15.2-5.07q7.6-6.35,7.61-17.74,0-9.19-8.24-15a31.35,31.35,0,0,0-18.69-5.86v-2.86a34,34,0,0,1,20.43,6.81Q517.15,303.29,517.15,313.43ZM421.49,152.52q0-24.7-17.65-42.13T361.07,93H338.5V212.7h22.57q25.13,0,42.77-17.58A57.93,57.93,0,0,0,421.49,152.52Z"/></svg>