<svg xmlns="http://www.w3.org/2000/svg" viewBox="0 0 792 612"><defs><style>.cls-1{font-size:102.84px;font-family:Georgia;}.cls-1,.cls-2,.cls-3{fill:#fff;}.cls-2{font-size:183px;font-family:Riesling;}.cls-4{fill:#d62a22;}</style></defs><title>Logotipo para enviar blanco, fondo color</title><g id="Capa_4" data-name="Capa 4"><text class="cls-1" transform="translate(104.46 502.56)">eatas &amp; Lonas</text><text id="R_EDITABLE" data-name="R EDITABLE" class="cls-2" transform="translate(35.46 502.56)">R</text><path class="cls-3" d="M572.6,224.49c0,103.21-83.67,187-187,187s-186.89-83.75-186.89-187,83.67-187,187-187S572.6,121.19,572.6,224.49Z"/><path class="cls-4" d="M407.13,225.47c3.13,0,4.76-.09,5.88-.17a.79.79,0,0,1,.09,1l-1.84.3c-2.29.38-3.5,2.53-4.8,4.67s-3.08,4.67-4.83,7.16c.7,1.16.95,1.5,1.37,2.14,2.21,3.48,4.34,3.86,6.05,3.86a5.32,5.32,0,0,0,3.76-1.54.57.57,0,0,1,.45.77,7.89,7.89,0,0,1-6.63,2.87,7.23,7.23,0,0,1-4.46-1.24,26,26,0,0,1-2.55-3.95c-2.38,2.75-5.38,5.19-9.09,5.19-5.88,0-8.18-4.33-8.18-7.71,0-4.46,3-7.08,6.76-9.35-1.5-1.07-3.21-2.74-3.21-5.19a5.83,5.83,0,0,1,5.84-5.79,5,5,0,0,1,5.38,5.11c0,2.83-2.17,3.94-4.21,5.14a29,29,0,0,1,8,8.4,62.19,62.19,0,0,0,4.34-7.5,8,8,0,0,0,.92-2.36c0-.3-.42-.55-1.08-.64l-1.42-.17a.72.72,0,0,1,.08-1Zm-21.65,12.09c0,3.81,2.55,6.47,6.22,6.47,2.79,0,5.3-1.67,7.17-3.94a30.36,30.36,0,0,0-8.67-9.69C388.11,231.47,385.48,234.09,385.48,237.56Zm3.09-14.28c0,1.8,1.17,3.35,3.42,4.68a5.27,5.27,0,0,0,2.5-4.46c0-1.89-.92-3.73-2.92-3.73C389.74,219.77,388.57,221.53,388.57,223.28Zm96.19,38.11-2.05,28.76H407.13v-4.83c1.09-.1,2.67-.25,4.73-.48a16,16,0,0,0,4.33-.89,5.87,5.87,0,0,0,3-2.59,9.15,9.15,0,0,0,.92-4.36V207.76a9.88,9.88,0,0,0-.79-4.09,5.93,5.93,0,0,0-3.1-2.87,24.17,24.17,0,0,0-4.39-1.6,25.53,25.53,0,0,0-4.67-.92v-4.84H448v4.84A33.47,33.47,0,0,0,443,199a35.71,35.71,0,0,0-4.39,1.1,5,5,0,0,0-3.17,2.79,10.54,10.54,0,0,0-.85,4.22v65a41.8,41.8,0,0,0,.44,7,6.21,6.21,0,0,0,2.08,3.85,9.33,9.33,0,0,0,4.66,1.6,76.86,76.86,0,0,0,8.69.38c1.68,0,3.43,0,5.25-.14a45.51,45.51,0,0,0,5.18-.54,26.9,26.9,0,0,0,4.4-1.13,7,7,0,0,0,3-1.8,60.72,60.72,0,0,0,6.51-9.51,68,68,0,0,0,5.15-10.33Zm3.15,61.2q0,27.87-28.83,27.87-49.41,0-75.7-53.53-7.29-21.54-14.57-43.08-12.68-28.5-37.06-28.51H309.26v66.2H295.64V98.64h36.11q30.72,0,52.42,18.53t21.7,44.5q0,20.28-14.57,37.7a69.37,69.37,0,0,1-39.91,24.39q15.51,6.35,27.87,30.41,7.92,18.38,16.16,36.74,13,26,31.67,40.55,17.42,13.94,35.16,13.93a23.66,23.66,0,0,0,15.21-5.06q7.59-6.34,7.6-17.74,0-9.19-8.24-15a31.42,31.42,0,0,0-18.69-5.86v-2.85a34,34,0,0,1,20.43,6.81Q487.91,312.45,487.91,322.59ZM392.25,161.67q0-24.71-17.65-42.12t-42.77-17.43H309.26V221.86h22.57q25.13,0,42.77-17.58A57.93,57.93,0,0,0,392.25,161.67Z"/></g></svg>